<?xml version="1.0" encoding="UTF-8" standalone="no"?>
<!-- Uploaded to: SVG Repo, www.svgrepo.com, Generator: SVG Repo Mixer Tools -->

<svg
   fill="#000000"
   width="800px"
   height="800px"
   viewBox="0 0 512 512"
   version="1.1"
   id="svg4"
   sodipodi:docname="chrome-logo.svg"
   inkscape:version="1.4.2 (f4327f4, 2025-05-13)"
   xmlns:inkscape="http://www.inkscape.org/namespaces/inkscape"
   xmlns:sodipodi="http://sodipodi.sourceforge.net/DTD/sodipodi-0.dtd"
   xmlns="http://www.w3.org/2000/svg"
   xmlns:svg="http://www.w3.org/2000/svg">
  <defs
     id="defs4" />
  <sodipodi:namedview
     id="namedview4"
     pagecolor="#ffffff"
     bordercolor="#000000"
     borderopacity="0.25"
     inkscape:showpageshadow="2"
     inkscape:pageopacity="0.0"
     inkscape:pagecheckerboard="0"
     inkscape:deskcolor="#d1d1d1"
     inkscape:zoom="0.651875"
     inkscape:cx="169.51103"
     inkscape:cy="240.0767"
     inkscape:window-width="2400"
     inkscape:window-height="1261"
     inkscape:window-x="2391"
     inkscape:window-y="-9"
     inkscape:window-maximized="1"
     inkscape:current-layer="svg4" />
  <title
     id="title1">ionicons-v5_logos</title>
  <path
     d="m 179.23701,255.95289 a 76.788959,76.788959 0 1 0 76.78895,-76.76611 76.994644,76.994644 0 0 0 -76.78895,76.76611 z"
     id="path1"
     style="stroke-width:1.14269;fill:#d9eedb;fill-opacity:1" />
  <path
     d="m 508.27541,212.37057 c 0,0 0,0 0,0.0572 a 236.11462,236.11462 0 0 0 -7.99884,-32.95527 h -0.1257 a 231.00678,231.00678 0 0 1 8.07883,33.13809 v 0 A 232.53799,232.53799 0 0 0 500.15087,179.4725 H 322.5764 c 21.7683,19.42578 35.83485,45.90198 35.83485,76.61756 A 98.900065,98.900065 0 0 1 344.3447,307.20269 L 227.45865,510.2249 a 2.7881705,2.7881705 0 0 1 0,0.30852 v 0.31995 0 -0.29709 a 255.9632,255.9632 0 0 0 28.56731,1.43978 c 7.81602,0 15.55205,-0.44565 23.19667,-1.14269 a 254.71766,254.71766 0 0 0 34.0294,-5.41636 C 427.06424,479.45218 511.98916,377.61539 511.98916,255.96431 a 257.39156,257.39156 0 0 0 -3.71375,-43.59374 z"
     id="path2"
     style="stroke-width:1.14269;fill:#d9eedb;fill-opacity:1" />
  <path
     d="m 256.02596,358.30388 c -38.39447,0 -70.38987,-20.46563 -88.31872,-51.18121 L 50.341258,104.11186 50.181281,103.83761 A 255.9632,255.9632 0 0 0 200.4911,505.7684 v -0.0572 l 88.7758,-153.80645 a 96.134749,96.134749 0 0 1 -33.24094,6.39908 z"
     id="path3"
     style="stroke-width:1.14269;fill:#d9eedb;fill-opacity:1" />
  <path
     d="M 67.813031,82.994895 156.20032,235.25872 a 101.91677,101.91677 0 0 1 99.82564,-82.0682 h 234.4463 a 281.68521,281.68521 0 0 0 -29.45862,-50.20993 l 0.13712,0.0914 a 280.25685,280.25685 0 0 1 29.3215,50.11851 h 0.19425 a 280.9996,280.9996 0 0 0 -29.32149,-50.27849 3.0052821,3.0052821 0 0 1 -0.39995,-0.2971 A 255.88321,255.88321 0 0 0 67.641628,82.732077 l 0.159976,0.274245 z"
     id="path4"
     style="stroke-width:1.14269;fill:#d9eedb;fill-opacity:1" />
</svg>
