<?xml version="1.0" encoding="UTF-8" standalone="no"?>
<!-- Created with Inkscape (http://www.inkscape.org/) -->

<svg
   width="1200"
   height="250"
   viewBox="0 0 1200 250"
   version="1.1"
   id="svg1"
   xml:space="preserve"
   sodipodi:docname="footer-transition.svg"
   inkscape:version="1.4.2 (f4327f4, 2025-05-13)"
   inkscape:export-filename="C:\Users\Dell\Downloads\footer-transition.png"
   inkscape:export-xdpi="96"
   inkscape:export-ydpi="96"
   xmlns:inkscape="http://www.inkscape.org/namespaces/inkscape"
   xmlns:sodipodi="http://sodipodi.sourceforge.net/DTD/sodipodi-0.dtd"
   xmlns="http://www.w3.org/2000/svg"
   xmlns:svg="http://www.w3.org/2000/svg"><sodipodi:namedview
     id="namedview1"
     pagecolor="#ffffff"
     bordercolor="#000000"
     borderopacity="0.25"
     inkscape:showpageshadow="2"
     inkscape:pageopacity="0.0"
     inkscape:pagecheckerboard="0"
     inkscape:deskcolor="#d1d1d1"
     inkscape:document-units="px"
     inkscape:zoom="1"
     inkscape:cx="540"
     inkscape:cy="411.5"
     inkscape:window-width="2400"
     inkscape:window-height="1261"
     inkscape:window-x="2391"
     inkscape:window-y="-9"
     inkscape:window-maximized="1"
     inkscape:current-layer="layer1"
     showguides="true"><inkscape:page
       x="0"
       y="0"
       width="1200"
       height="250"
       id="page2"
       margin="0"
       bleed="0" /></sodipodi:namedview><defs
     id="defs1" /><g
     inkscape:label="Capa 1"
     inkscape:groupmode="layer"
     id="layer1"><path
       style="fill:#f6f8fe;fill-opacity:1;stroke-width:0.624442"
       d="m 891.79372,81.1924 c 0,0 10.61552,-13.58162 30.44156,-11.39607 0,0 9.36663,-17.17216 27.47545,-4.83943 0,0 4.5272,-20.60659 24.04102,-22.63603 0,0 23.10437,-5.77609 33.71985,19.82604 0,0 14.2061,-8.42997 22.0116,10.14719 0,0 10.4595,-0.62444 17.7967,9.21052 z"
       id="path46211" /><path
       style="fill:#f6f8fe;fill-opacity:1;stroke-width:0.624442"
       d="m 590.26212,39.75752 c -9.05173,-8.61018 -18.87614,-5.9609 -18.87614,-5.9609 0,0 -0.11041,-8.61017 -10.5971,-13.13602 -10.48675,-4.52587 -18.54499,1.32464 -18.54499,1.32464 0,0 -3.53241,-19.98002 -24.83706,-20.20079 -21.30467,-0.22077 -25.0578,17.33073 -25.0578,17.33073 -15.78535,-9.05172 -19.31769,7.5063 -19.31769,7.5063 0,0 -16.99956,-1.76619 -18.32426,13.57758 z"
       id="path173" /><path
       style="fill:#f6f8fe;fill-opacity:1;stroke-width:0.624442"
       d="m 724.14883,54.26877 c 0,0 10.61551,-13.58162 30.44155,-11.39607 0,0 9.36663,-17.17216 27.47546,-4.83943 0,0 4.5272,-20.60659 24.04101,-22.63603 0,0 23.10436,-5.776086 33.71988,19.82604 0,0 14.20606,-8.42997 22.01159,10.14718 0,0 10.4594,-0.62444 17.7966,9.21053 z"
       id="path174" /><path
       style="fill:#b4d0ff;fill-opacity:1;stroke:none;stroke-width:0.764765"
       d="M 1200,250 H 0 V 36.518496 c 0,0 102.4671,-17.643836 160.27612,21.623824 0,0 60.32242,-8.028045 87.13237,20.070137 0,0 96.76717,-17.103251 148.71145,28.272703 0,0 54.03884,-16.230628 100.53746,15.53253 0,0 39.79594,-11.69302 79.59202,4.71213 0,0 25.13434,-17.80134 90.90255,-8.72615 0,0 29.32337,-25.480336 108.9155,-10.99494 0,0 33.93131,-43.805244 162.11643,-30.36699 0,0 24.7155,-31.065068 110.591,-16.754183 0,0 46.9176,-39.267659 151.2251,-22.164417 z"
       id="path46209"
       sodipodi:nodetypes="cccccccccccccc" /><path
       style="fill:#8fb1f0;fill-opacity:1;stroke:none;stroke-width:0.7749"
       d="M 0,250 V 109.27392 c 0,0 127.39436,-6.76774 311.7037,31.43521 0,0 119.51851,34.97927 246.59257,36.27913 0,0 124.42595,-24.04655 227.48145,-31.71933 0,0 132.19625,-26.42767 414.22228,-13.02582 V 250 Z"
       id="path46208"
       sodipodi:nodetypes="cccccccc" /><path
       style="fill:#091a2b;fill-opacity:1;stroke:none;stroke-width:0.629324"
       d="M 953.32689,218.17721 C 1117.6155,219.82996 1200,191.53916 1200,191.53916 V 266 H 0 v -50.44776 c 0,0 196.35461,-61.61342 402.67548,-57.83568 0,0 152.43314,0.15417 260.43539,25.15242 0,0 157.73106,42.27573 290.21602,35.30823 z"
       id="path46207"
       sodipodi:nodetypes="cccccccc" /><path
       style="fill:#f6f8fe;fill-opacity:1;stroke-width:1.06197"
       d="M 361.65128,80.78178 C 346.25739,66.13882 329.54944,70.64434 329.54944,70.64434 c 0,0 -0.18777,-14.64295 -18.02204,-22.33989 -17.83439,-7.69694 -31.5387,2.25276 -31.5387,2.25276 0,0 -6.00741,-33.97916 -42.23936,-34.35464 -36.23193,-0.37545 -42.61474,29.47366 -42.61474,29.47366 -26.84547,-15.39389 -32.85277,12.76565 -32.85277,12.76565 0,0 -28.91045,-3.00368 -31.1633,23.09082 z"
       id="path46210" /><path
       style="fill:#c7afd7;fill-opacity:1;stroke:none;stroke-width:0.624442"
       d="m 832.44427,80.36198 c 0,0 -6.84402,-2.09735 -11.81139,4.85702 0,0 -4.63624,-6.40243 -11.48024,-3.97393 0,0 1.65582,-4.74662 10.92829,-0.11038 0,0 6.95435,-5.96089 12.36334,-0.77271 z"
       id="path46212" /><path
       style="fill:#c7afd7;fill-opacity:1;stroke:none;stroke-width:0.407131"
       d="m 845.83071,70.96723 c 0,0 -4.46227,-1.36746 -7.70094,3.16673 0,0 -3.02274,-4.17433 -7.485,-2.59096 0,0 1.07959,-3.09476 7.12513,-0.072 0,0 4.5342,-3.88645 8.06081,-0.5038 z"
       id="path46213" /><path
       style="fill:#c7afd7;fill-opacity:1;stroke:none;stroke-width:1.43016"
       d="m 189.3335,73.31783 c 0,0 -15.67488,-4.80357 -27.05167,11.12405 0,0 -10.6184,-14.66351 -26.29324,-9.10151 0,0 3.79233,-10.8712 25.02911,-0.2528 0,0 15.92757,-13.65225 28.3158,-1.76974 z"
       id="path46214" /><path
       style="fill:#c7afd7;fill-opacity:1;stroke:none;stroke-width:0.932454"
       d="m 135.3742,57.4692 c 0,0 -10.21996,-3.1319 -17.6375,7.25278 0,0 -6.92299,-9.56049 -17.14292,-5.93409 0,0 2.47259,-7.08794 16.31871,-0.1649 0,0 10.3847,-8.90115 18.46171,-1.15386 z"
       id="path46215" /></g></svg>
