<?xml version="1.0" encoding="UTF-8" standalone="no"?>
<!-- Uploaded to: SVG Repo, www.svgrepo.com, Generator: SVG Repo Mixer Tools -->

<svg
   fill="#000000"
   width="800px"
   height="800px"
   viewBox="0 0 32 32"
   version="1.1"
   id="svg1"
   sodipodi:docname="vsc-logo.svg"
   inkscape:version="1.4.2 (f4327f4, 2025-05-13)"
   xmlns:inkscape="http://www.inkscape.org/namespaces/inkscape"
   xmlns:sodipodi="http://sodipodi.sourceforge.net/DTD/sodipodi-0.dtd"
   xmlns="http://www.w3.org/2000/svg"
   xmlns:svg="http://www.w3.org/2000/svg">
  <defs
     id="defs1" />
  <sodipodi:namedview
     id="namedview1"
     pagecolor="#ffffff"
     bordercolor="#000000"
     borderopacity="0.25"
     inkscape:showpageshadow="2"
     inkscape:pageopacity="0.0"
     inkscape:pagecheckerboard="0"
     inkscape:deskcolor="#d1d1d1"
     inkscape:zoom="0.651875"
     inkscape:cx="418.02493"
     inkscape:cy="226.27037"
     inkscape:window-width="2400"
     inkscape:window-height="1261"
     inkscape:window-x="2391"
     inkscape:window-y="-9"
     inkscape:window-maximized="1"
     inkscape:current-layer="svg1" />
  <path
     d="M30.865 3.448l-6.583-3.167c-0.766-0.37-1.677-0.214-2.276 0.385l-12.609 11.505-5.495-4.167c-0.51-0.391-1.229-0.359-1.703 0.073l-1.76 1.604c-0.583 0.526-0.583 1.443-0.005 1.969l4.766 4.349-4.766 4.349c-0.578 0.526-0.578 1.443 0.005 1.969l1.76 1.604c0.479 0.432 1.193 0.464 1.703 0.073l5.495-4.172 12.615 11.51c0.594 0.599 1.505 0.755 2.271 0.385l6.589-3.172c0.693-0.333 1.13-1.031 1.13-1.802v-21.495c0-0.766-0.443-1.469-1.135-1.802zM24.005 23.266l-9.573-7.266 9.573-7.266z"
     id="path1"
     style="fill:#d9eedb;fill-opacity:1" />
</svg>
