<?xml version="1.0" encoding="UTF-8" standalone="no"?>
<!-- Uploaded to: SVG Repo, www.svgrepo.com, Generator: SVG Repo Mixer Tools -->

<svg
   width="800px"
   height="800px"
   viewBox="0 0 400 400"
   fill="none"
   version="1.1"
   id="svg8"
   sodipodi:docname="wip.svg"
   inkscape:version="1.4.2 (f4327f4, 2025-05-13)"
   xmlns:inkscape="http://www.inkscape.org/namespaces/inkscape"
   xmlns:sodipodi="http://sodipodi.sourceforge.net/DTD/sodipodi-0.dtd"
   xmlns="http://www.w3.org/2000/svg"
   xmlns:svg="http://www.w3.org/2000/svg">
  <defs
     id="defs8" />
  <sodipodi:namedview
     id="namedview8"
     pagecolor="#ffffff"
     bordercolor="#000000"
     borderopacity="0.25"
     inkscape:showpageshadow="2"
     inkscape:pageopacity="0.0"
     inkscape:pagecheckerboard="0"
     inkscape:deskcolor="#d1d1d1"
     inkscape:zoom="1.30375"
     inkscape:cx="209.39597"
     inkscape:cy="482.83797"
     inkscape:window-width="2400"
     inkscape:window-height="1261"
     inkscape:window-x="2391"
     inkscape:window-y="-9"
     inkscape:window-maximized="1"
     inkscape:current-layer="svg8" />
  <path
     d="m 198.59256,84.471044 c 22.24816,56.391316 89.09053,38.861176 69.56479,-23.856221"
     stroke="#000000"
     stroke-opacity="0.9"
     stroke-width="22.0661"
     stroke-linecap="round"
     stroke-linejoin="round"
     id="path2"
     style="stroke:#dbcce8;stroke-opacity:1" />
  <path
     opacity="0.503384"
     d="m 166.95748,94.510397 c 14.09335,-5.843382 101.8116,-33.059586 102.45014,-50.693855 0.251,-6.927517 -12.52114,-38.0236283 -61.66098,-26.818182 -30.20988,6.889177 -27.78813,36.446591 -24.41339,49.140534 1.62047,6.09852 10.18488,9.804248 13.71546,15.047706"
     stroke="#000000"
     stroke-opacity="0.9"
     stroke-width="19.3078"
     stroke-linecap="round"
     stroke-linejoin="round"
     id="path1"
     style="opacity:1;stroke:#b0d8be;stroke-opacity:1"
     sodipodi:nodetypes="ccccc" />
  <path
     d="m 250.74751,145.60185 c 7.14666,27.8557 32.73613,129.94377 41.64118,151.75336 10.60415,25.96766 36.10981,59.22818 53.77098,80.85849 l -14.29884,10.63449"
     stroke="#000000"
     stroke-opacity="0.9"
     stroke-width="22.0661"
     stroke-linecap="round"
     stroke-linejoin="round"
     id="path3"
     style="stroke:#dbcce8;stroke-opacity:1"
     sodipodi:nodetypes="cccc" />
  <path
     d="m 211.00475,388.80957 c 2.39141,0.32134 21.26207,-1.44671 22.07576,-1.96388 0.81507,-0.51855 7.05073,-113.02408 30.48632,-158.10928 l -12.81932,-83.13456"
     stroke="#000000"
     stroke-opacity="0.9"
     stroke-width="22.0661"
     stroke-linecap="round"
     stroke-linejoin="round"
     id="path4"
     style="stroke:#dbcce8;stroke-opacity:1"
     sodipodi:nodetypes="cccc" />
  <path
     d="m 250.74751,145.60185 c -19.45265,24.89333 -46.48947,63.03657 -65.94627,86.02531"
     stroke="#000000"
     stroke-opacity="0.9"
     stroke-width="22.0661"
     stroke-linecap="round"
     stroke-linejoin="round"
     id="path6"
     style="stroke:#dbcce8;stroke-opacity:1"
     sodipodi:nodetypes="cc" />
  <g
     id="g9"
     transform="rotate(-11.852901,256.42091,238.32375)">
    <g
       id="g8">
      <path
         d="m 343.4014,202.6654 c -75.37921,11.72262 -130.59275,14.41193 -205.49063,23.44524"
         stroke="#000000"
         stroke-opacity="0.9"
         stroke-width="22.0661"
         stroke-linecap="round"
         stroke-linejoin="round"
         id="path7"
         style="stroke:#f6f8fe;stroke-opacity:1" />
      <path
         d="m 119.15182,205.78775 c 0.0165,7.35353 15.17872,40.08033 9.0071,46.47399 -20.7118,21.45514 -104.363038,5.90819 -63.085618,-32.53097 11.54334,-10.74895 30.13403,-15.02977 49.754938,-17.06537"
         stroke="#000000"
         stroke-opacity="0.9"
         stroke-width="22.0661"
         stroke-linecap="round"
         stroke-linejoin="round"
         id="path8"
         style="stroke:#f6f8fe;stroke-opacity:1" />
    </g>
  </g>
  <path
     d="m 250.74751,145.60185 c 60.21428,-0.54063 106.92862,36.66417 43.791,63.85237"
     stroke="#000000"
     stroke-opacity="0.9"
     stroke-width="22.0661"
     stroke-linecap="round"
     stroke-linejoin="round"
     id="path5"
     style="stroke:#dbcce8;stroke-opacity:1"
     sodipodi:nodetypes="cc" />
</svg>
